<svg xmlns="http://www.w3.org/2000/svg" version="1.1" xmlns:xlink="http://www.w3.org/1999/xlink" xmlns:svgjs="http://svgjs.com/svgjs" width="1440" height="560" preserveAspectRatio="none" viewBox="0 0 1440 560"><g mask="url(&quot;#SvgjsMask1022&quot;)" fill="none"><rect width="1440" height="560" x="0" y="0" fill="#0e2a47"></rect><path d="M-84.17 679.82L-84.17 679.82" stroke="#132e65" stroke-width="1.5"></path><path d="M-84.17 679.82L87.11 681.17" stroke="#132e65" stroke-width="1.5"></path><path d="M-84.17 679.82L111.56 545.82" stroke="#132e65" stroke-width="1.5"></path><path d="M-84.17 679.82L235.46 673.32" stroke="#132e65" stroke-width="1.5"></path><path d="M-84.17 679.82L217.01 504.81" stroke="#132e65" stroke-width="1.5"></path><path d="M-84.17 679.82L203.01 347.49" stroke="#132e65" stroke-width="1.5"></path><path d="M111.56 545.82L111.56 545.82" stroke="#132e65" stroke-width="1.5"></path><path d="M111.56 545.82L217.01 504.81" stroke="#132e65" stroke-width="1.5"></path><path d="M111.56 545.82L87.11 681.17" stroke="#132e65" stroke-width="1.5"></path><path d="M111.56 545.82L235.46 673.32" stroke="#132e65" stroke-width="1.5"></path><path d="M87.11 681.17L87.11 681.17" stroke="#132e65" stroke-width="1.5"></path><path d="M87.11 681.17L235.46 673.32" stroke="#132e65" stroke-width="1.5"></path><path d="M203.01 347.49L203.01 347.49" stroke="#132e65" stroke-width="1.5"></path><path d="M203.01 347.49L338.49 362.31" stroke="#132e65" stroke-width="1.5"></path><path d="M203.01 347.49L217.01 504.81" stroke="#132e65" stroke-width="1.5"></path><path d="M203.01 347.49L111.56 545.82" stroke="#132e65" stroke-width="1.5"></path><path d="M203.01 347.49L349.15 513.6" stroke="#132e65" stroke-width="1.5"></path><path d="M203.01 347.49L501.28 395.22" stroke="#132e65" stroke-width="1.5"></path><path d="M217.01 504.81L217.01 504.81" stroke="#132e65" stroke-width="1.5"></path><path d="M217.01 504.81L349.15 513.6" stroke="#132e65" stroke-width="1.5"></path><path d="M235.46 673.32L235.46 673.32" stroke="#132e65" stroke-width="1.5"></path><path d="M235.46 673.32L374.55 664.86" stroke="#132e65" stroke-width="1.5"></path><path d="M235.46 673.32L217.01 504.81" stroke="#132e65" stroke-width="1.5"></path><path d="M338.49 362.31L338.49 362.31" stroke="#132e65" stroke-width="1.5"></path><path d="M338.49 362.31L349.15 513.6" stroke="#132e65" stroke-width="1.5"></path><path d="M338.49 362.31L501.28 395.22" stroke="#132e65" stroke-width="1.5"></path><path d="M338.49 362.31L217.01 504.81" stroke="#132e65" stroke-width="1.5"></path><path d="M349.15 513.6L349.15 513.6" stroke="#132e65" stroke-width="1.5"></path><path d="M349.15 513.6L374.55 664.86" stroke="#132e65" stroke-width="1.5"></path><path d="M349.15 513.6L501.28 395.22" stroke="#132e65" stroke-width="1.5"></path><path d="M349.15 513.6L235.46 673.32" stroke="#132e65" stroke-width="1.5"></path><path d="M349.15 513.6L561.56 550.36" stroke="#132e65" stroke-width="1.5"></path><path d="M374.55 664.86L374.55 664.86" stroke="#132e65" stroke-width="1.5"></path><path d="M374.55 664.86L561.56 550.36" stroke="#132e65" stroke-width="1.5"></path><path d="M501.28 395.22L501.28 395.22" stroke="#132e65" stroke-width="1.5"></path><path d="M501.28 395.22L561.56 550.36" stroke="#132e65" stroke-width="1.5"></path><path d="M501.28 395.22L693.99 367.23" stroke="#132e65" stroke-width="1.5"></path><path d="M501.28 395.22L711.56 487.73" stroke="#132e65" stroke-width="1.5"></path><path d="M561.56 550.36L561.56 550.36" stroke="#132e65" stroke-width="1.5"></path><path d="M561.56 550.36L711.56 487.73" stroke="#132e65" stroke-width="1.5"></path><path d="M696.44 204.4L696.44 204.4" stroke="#132e65" stroke-width="1.5"></path><path d="M696.44 204.4L693.99 367.23" stroke="#132e65" stroke-width="1.5"></path><path d="M696.44 204.4L858.06 247.39" stroke="#132e65" stroke-width="1.5"></path><path d="M696.44 204.4L849.54 62.55" stroke="#132e65" stroke-width="1.5"></path><path d="M693.99 367.23L693.99 367.23" stroke="#132e65" stroke-width="1.5"></path><path d="M693.99 367.23L711.56 487.73" stroke="#132e65" stroke-width="1.5"></path><path d="M693.99 367.23L789.13 507.38" stroke="#132e65" stroke-width="1.5"></path><path d="M693.99 367.23L858.06 247.39" stroke="#132e65" stroke-width="1.5"></path><path d="M711.56 487.73L711.56 487.73" stroke="#132e65" stroke-width="1.5"></path><path d="M711.56 487.73L789.13 507.38" stroke="#132e65" stroke-width="1.5"></path><path d="M711.56 487.73L705.83 641.41" stroke="#132e65" stroke-width="1.5"></path><path d="M705.83 641.41L705.83 641.41" stroke="#132e65" stroke-width="1.5"></path><path d="M705.83 641.41L815.93 642.57" stroke="#132e65" stroke-width="1.5"></path><path d="M849.54 62.55L849.54 62.55" stroke="#132e65" stroke-width="1.5"></path><path d="M849.54 62.55L1006.76 95.8" stroke="#132e65" stroke-width="1.5"></path><path d="M849.54 62.55L858.06 247.39" stroke="#132e65" stroke-width="1.5"></path><path d="M849.54 62.55L997.9 -76.89" stroke="#132e65" stroke-width="1.5"></path><path d="M849.54 62.55L961.64 262.47" stroke="#132e65" stroke-width="1.5"></path><path d="M858.06 247.39L858.06 247.39" stroke="#132e65" stroke-width="1.5"></path><path d="M858.06 247.39L961.64 262.47" stroke="#132e65" stroke-width="1.5"></path><path d="M858.06 247.39L988.07 394.23" stroke="#132e65" stroke-width="1.5"></path><path d="M789.13 507.38L789.13 507.38" stroke="#132e65" stroke-width="1.5"></path><path d="M789.13 507.38L815.93 642.57" stroke="#132e65" stroke-width="1.5"></path><path d="M789.13 507.38L705.83 641.41" stroke="#132e65" stroke-width="1.5"></path><path d="M815.93 642.57L815.93 642.57" stroke="#132e65" stroke-width="1.5"></path><path d="M815.93 642.57L976.92 673.83" stroke="#132e65" stroke-width="1.5"></path><path d="M997.9 -76.89L997.9 -76.89" stroke="#132e65" stroke-width="1.5"></path><path d="M997.9 -76.89L1106.27 -59.3" stroke="#132e65" stroke-width="1.5"></path><path d="M997.9 -76.89L1006.76 95.8" stroke="#132e65" stroke-width="1.5"></path><path d="M997.9 -76.89L1162.01 73.86" stroke="#132e65" stroke-width="1.5"></path><path d="M997.9 -76.89L1251.2 -111.97" stroke="#132e65" stroke-width="1.5"></path><path d="M997.9 -76.89L1113.4 199.03" stroke="#132e65" stroke-width="1.5"></path><path d="M1006.76 95.8L1006.76 95.8" stroke="#132e65" stroke-width="1.5"></path><path d="M1006.76 95.8L1113.4 199.03" stroke="#132e65" stroke-width="1.5"></path><path d="M1006.76 95.8L1162.01 73.86" stroke="#132e65" stroke-width="1.5"></path><path d="M961.64 262.47L961.64 262.47" stroke="#132e65" stroke-width="1.5"></path><path d="M961.64 262.47L988.07 394.23" stroke="#132e65" stroke-width="1.5"></path><path d="M961.64 262.47L1113.4 199.03" stroke="#132e65" stroke-width="1.5"></path><path d="M961.64 262.47L1006.76 95.8" stroke="#132e65" stroke-width="1.5"></path><path d="M988.07 394.23L988.07 394.23" stroke="#132e65" stroke-width="1.5"></path><path d="M988.07 394.23L985.17 513.47" stroke="#132e65" stroke-width="1.5"></path><path d="M988.07 394.23L1101.72 503.35" stroke="#132e65" stroke-width="1.5"></path><path d="M985.17 513.47L985.17 513.47" stroke="#132e65" stroke-width="1.5"></path><path d="M985.17 513.47L1101.72 503.35" stroke="#132e65" stroke-width="1.5"></path><path d="M985.17 513.47L976.92 673.83" stroke="#132e65" stroke-width="1.5"></path><path d="M976.92 673.83L976.92 673.83" stroke="#132e65" stroke-width="1.5"></path><path d="M976.92 673.83L1133.21 662.38" stroke="#132e65" stroke-width="1.5"></path><path d="M976.92 673.83L1101.72 503.35" stroke="#132e65" stroke-width="1.5"></path><path d="M1106.27 -59.3L1106.27 -59.3" stroke="#132e65" stroke-width="1.5"></path><path d="M1106.27 -59.3L1162.01 73.86" stroke="#132e65" stroke-width="1.5"></path><path d="M1106.27 -59.3L1251.2 -111.97" stroke="#132e65" stroke-width="1.5"></path><path d="M1106.27 -59.3L1006.76 95.8" stroke="#132e65" stroke-width="1.5"></path><path d="M1162.01 73.86L1162.01 73.86" stroke="#132e65" stroke-width="1.5"></path><path d="M1162.01 73.86L1287.66 108.6" stroke="#132e65" stroke-width="1.5"></path><path d="M1162.01 73.86L1113.4 199.03" stroke="#132e65" stroke-width="1.5"></path><path d="M1113.4 199.03L1113.4 199.03" stroke="#132e65" stroke-width="1.5"></path><path d="M1113.4 199.03L1150.2 340.86" stroke="#132e65" stroke-width="1.5"></path><path d="M1150.2 340.86L1150.2 340.86" stroke="#132e65" stroke-width="1.5"></path><path d="M1150.2 340.86L1278.74 363.01" stroke="#132e65" stroke-width="1.5"></path><path d="M1150.2 340.86L1250.55 253.11" stroke="#132e65" stroke-width="1.5"></path><path d="M1150.2 340.86L1101.72 503.35" stroke="#132e65" stroke-width="1.5"></path><path d="M1150.2 340.86L988.07 394.23" stroke="#132e65" stroke-width="1.5"></path><path d="M1150.2 340.86L961.64 262.47" stroke="#132e65" stroke-width="1.5"></path><path d="M1101.72 503.35L1101.72 503.35" stroke="#132e65" stroke-width="1.5"></path><path d="M1101.72 503.35L1245.24 539.65" stroke="#132e65" stroke-width="1.5"></path><path d="M1133.21 662.38L1133.21 662.38" stroke="#132e65" stroke-width="1.5"></path><path d="M1133.21 662.38L1101.72 503.35" stroke="#132e65" stroke-width="1.5"></path><path d="M1133.21 662.38L1245.24 539.65" stroke="#132e65" stroke-width="1.5"></path><path d="M1133.21 662.38L1297.87 698.33" stroke="#132e65" stroke-width="1.5"></path><path d="M1251.2 -111.97L1251.2 -111.97" stroke="#132e65" stroke-width="1.5"></path><path d="M1251.2 -111.97L1438.57 -47.08" stroke="#132e65" stroke-width="1.5"></path><path d="M1251.2 -111.97L1162.01 73.86" stroke="#132e65" stroke-width="1.5"></path><path d="M1251.2 -111.97L1287.66 108.6" stroke="#132e65" stroke-width="1.5"></path><path d="M1251.2 -111.97L1431.67 96.45" stroke="#132e65" stroke-width="1.5"></path><path d="M1287.66 108.6L1287.66 108.6" stroke="#132e65" stroke-width="1.5"></path><path d="M1287.66 108.6L1431.67 96.45" stroke="#132e65" stroke-width="1.5"></path><path d="M1287.66 108.6L1250.55 253.11" stroke="#132e65" stroke-width="1.5"></path><path d="M1287.66 108.6L1113.4 199.03" stroke="#132e65" stroke-width="1.5"></path><path d="M1287.66 108.6L1427.44 246.92" stroke="#132e65" stroke-width="1.5"></path><path d="M1250.55 253.11L1250.55 253.11" stroke="#132e65" stroke-width="1.5"></path><path d="M1250.55 253.11L1278.74 363.01" stroke="#132e65" stroke-width="1.5"></path><path d="M1250.55 253.11L1113.4 199.03" stroke="#132e65" stroke-width="1.5"></path><path d="M1250.55 253.11L1427.44 246.92" stroke="#132e65" stroke-width="1.5"></path><path d="M1250.55 253.11L1409.57 370.09" stroke="#132e65" stroke-width="1.5"></path><path d="M1278.74 363.01L1278.74 363.01" stroke="#132e65" stroke-width="1.5"></path><path d="M1245.24 539.65L1245.24 539.65" stroke="#132e65" stroke-width="1.5"></path><path d="M1245.24 539.65L1391.77 514.98" stroke="#132e65" stroke-width="1.5"></path><path d="M1297.87 698.33L1297.87 698.33" stroke="#132e65" stroke-width="1.5"></path><path d="M1297.87 698.33L1245.24 539.65" stroke="#132e65" stroke-width="1.5"></path><path d="M1297.87 698.33L1460.85 643.59" stroke="#132e65" stroke-width="1.5"></path><path d="M1297.87 698.33L1391.77 514.98" stroke="#132e65" stroke-width="1.5"></path><path d="M1297.87 698.33L1101.72 503.35" stroke="#132e65" stroke-width="1.5"></path><path d="M1438.57 -47.08L1438.57 -47.08" stroke="#132e65" stroke-width="1.5"></path><path d="M1438.57 -47.08L1431.67 96.45" stroke="#132e65" stroke-width="1.5"></path><path d="M1438.57 -47.08L1594.52 -94.2" stroke="#132e65" stroke-width="1.5"></path><path d="M1438.57 -47.08L1287.66 108.6" stroke="#132e65" stroke-width="1.5"></path><path d="M1438.57 -47.08L1600.36 110.16" stroke="#132e65" stroke-width="1.5"></path><path d="M1438.57 -47.08L1427.44 246.92" stroke="#132e65" stroke-width="1.5"></path><path d="M1431.67 96.45L1431.67 96.45" stroke="#132e65" stroke-width="1.5"></path><path d="M1431.67 96.45L1427.44 246.92" stroke="#132e65" stroke-width="1.5"></path><path d="M1431.67 96.45L1600.36 110.16" stroke="#132e65" stroke-width="1.5"></path><path d="M1431.67 96.45L1604.23 237.72" stroke="#132e65" stroke-width="1.5"></path><path d="M1431.67 96.45L1250.55 253.11" stroke="#132e65" stroke-width="1.5"></path><path d="M1427.44 246.92L1427.44 246.92" stroke="#132e65" stroke-width="1.5"></path><path d="M1427.44 246.92L1409.57 370.09" stroke="#132e65" stroke-width="1.5"></path><path d="M1409.57 370.09L1409.57 370.09" stroke="#132e65" stroke-width="1.5"></path><path d="M1409.57 370.09L1278.74 363.01" stroke="#132e65" stroke-width="1.5"></path><path d="M1409.57 370.09L1391.77 514.98" stroke="#132e65" stroke-width="1.5"></path><path d="M1409.57 370.09L1553.06 490.06" stroke="#132e65" stroke-width="1.5"></path><path d="M1409.57 370.09L1599.5 406" stroke="#132e65" stroke-width="1.5"></path><path d="M1391.77 514.98L1391.77 514.98" stroke="#132e65" stroke-width="1.5"></path><path d="M1391.77 514.98L1460.85 643.59" stroke="#132e65" stroke-width="1.5"></path><path d="M1391.77 514.98L1553.06 490.06" stroke="#132e65" stroke-width="1.5"></path><path d="M1391.77 514.98L1278.74 363.01" stroke="#132e65" stroke-width="1.5"></path><path d="M1460.85 643.59L1460.85 643.59" stroke="#132e65" stroke-width="1.5"></path><path d="M1460.85 643.59L1586.3 666.76" stroke="#132e65" stroke-width="1.5"></path><path d="M1460.85 643.59L1553.06 490.06" stroke="#132e65" stroke-width="1.5"></path><path d="M1460.85 643.59L1245.24 539.65" stroke="#132e65" stroke-width="1.5"></path><path d="M1460.85 643.59L1599.5 406" stroke="#132e65" stroke-width="1.5"></path><path d="M1594.52 -94.2L1594.52 -94.2" stroke="#132e65" stroke-width="1.5"></path><path d="M1594.52 -94.2L1600.36 110.16" stroke="#132e65" stroke-width="1.5"></path><path d="M1594.52 -94.2L1431.67 96.45" stroke="#132e65" stroke-width="1.5"></path><path d="M1594.52 -94.2L1604.23 237.72" stroke="#132e65" stroke-width="1.5"></path><path d="M1600.36 110.16L1600.36 110.16" stroke="#132e65" stroke-width="1.5"></path><path d="M1600.36 110.16L1604.23 237.72" stroke="#132e65" stroke-width="1.5"></path><path d="M1600.36 110.16L1427.44 246.92" stroke="#132e65" stroke-width="1.5"></path><path d="M1604.23 237.72L1604.23 237.72" stroke="#132e65" stroke-width="1.5"></path><path d="M1604.23 237.72L1599.5 406" stroke="#132e65" stroke-width="1.5"></path><path d="M1604.23 237.72L1427.44 246.92" stroke="#132e65" stroke-width="1.5"></path><path d="M1604.23 237.72L1409.57 370.09" stroke="#132e65" stroke-width="1.5"></path><path d="M1599.5 406L1599.5 406" stroke="#132e65" stroke-width="1.5"></path><path d="M1599.5 406L1553.06 490.06" stroke="#132e65" stroke-width="1.5"></path><path d="M1599.5 406L1427.44 246.92" stroke="#132e65" stroke-width="1.5"></path><path d="M1553.06 490.06L1553.06 490.06" stroke="#132e65" stroke-width="1.5"></path><path d="M1586.3 666.76L1586.3 666.76" stroke="#132e65" stroke-width="1.5"></path><path d="M1586.3 666.76L1553.06 490.06" stroke="#132e65" stroke-width="1.5"></path><circle r="5" cx="-84.17" cy="679.82" fill="#132e65"></circle><circle r="5" cx="111.56" cy="545.82" fill="#132e65"></circle><circle r="5" cx="87.11" cy="681.17" fill="#132e65"></circle><circle r="5" cx="203.01" cy="347.49" fill="#132e65"></circle><circle r="5" cx="217.01" cy="504.81" fill="#132e65"></circle><circle r="5" cx="235.46" cy="673.32" fill="#132e65"></circle><circle r="5" cx="338.49" cy="362.31" fill="#132e65"></circle><circle r="5" cx="349.15" cy="513.6" fill="#132e65"></circle><circle r="5" cx="374.55" cy="664.86" fill="#132e65"></circle><circle r="5" cx="501.28" cy="395.22" fill="#132e65"></circle><circle r="5" cx="561.56" cy="550.36" fill="#132e65"></circle><circle r="5" cx="696.44" cy="204.4" fill="#132e65"></circle><circle r="5" cx="693.99" cy="367.23" fill="#132e65"></circle><circle r="5" cx="711.56" cy="487.73" fill="#132e65"></circle><circle r="5" cx="705.83" cy="641.41" fill="#132e65"></circle><circle r="5" cx="849.54" cy="62.55" fill="#132e65"></circle><circle r="5" cx="858.06" cy="247.39" fill="#132e65"></circle><circle r="5" cx="789.13" cy="507.38" fill="#132e65"></circle><circle r="5" cx="815.93" cy="642.57" fill="#132e65"></circle><circle r="5" cx="997.9" cy="-76.89" fill="#132e65"></circle><circle r="5" cx="1006.76" cy="95.8" fill="#132e65"></circle><circle r="5" cx="961.64" cy="262.47" fill="#132e65"></circle><circle r="5" cx="988.07" cy="394.23" fill="#132e65"></circle><circle r="5" cx="985.17" cy="513.47" fill="#132e65"></circle><circle r="5" cx="976.92" cy="673.83" fill="#132e65"></circle><circle r="5" cx="1106.27" cy="-59.3" fill="#132e65"></circle><circle r="5" cx="1162.01" cy="73.86" fill="#132e65"></circle><circle r="5" cx="1113.4" cy="199.03" fill="#132e65"></circle><circle r="5" cx="1150.2" cy="340.86" fill="#132e65"></circle><circle r="5" cx="1101.72" cy="503.35" fill="#132e65"></circle><circle r="5" cx="1133.21" cy="662.38" fill="#132e65"></circle><circle r="5" cx="1251.2" cy="-111.97" fill="#132e65"></circle><circle r="5" cx="1287.66" cy="108.6" fill="#132e65"></circle><circle r="5" cx="1250.55" cy="253.11" fill="#132e65"></circle><circle r="5" cx="1278.74" cy="363.01" fill="#132e65"></circle><circle r="5" cx="1245.24" cy="539.65" fill="#132e65"></circle><circle r="5" cx="1297.87" cy="698.33" fill="#132e65"></circle><circle r="5" cx="1438.57" cy="-47.08" fill="#132e65"></circle><circle r="5" cx="1431.67" cy="96.45" fill="#132e65"></circle><circle r="5" cx="1427.44" cy="246.92" fill="#132e65"></circle><circle r="5" cx="1409.57" cy="370.09" fill="#132e65"></circle><circle r="5" cx="1391.77" cy="514.98" fill="#132e65"></circle><circle r="5" cx="1460.85" cy="643.59" fill="#132e65"></circle><circle r="5" cx="1594.52" cy="-94.2" fill="#132e65"></circle><circle r="5" cx="1600.36" cy="110.16" fill="#132e65"></circle><circle r="5" cx="1604.23" cy="237.72" fill="#132e65"></circle><circle r="5" cx="1599.5" cy="406" fill="#132e65"></circle><circle r="5" cx="1553.06" cy="490.06" fill="#132e65"></circle><circle r="5" cx="1586.3" cy="666.76" fill="#132e65"></circle><path d="M-48.15 500.18L-48.15 500.18" stroke="hsl(36.89999999999998, 76.2%, 32.1%)" stroke-width="1.5"></path><path d="M-48.15 500.18L88.75 505.08" stroke="hsl(36.89999999999998, 76.2%, 32.1%)" stroke-width="1.5"></path><path d="M-48.15 500.18L-110.36 679.79" stroke="hsl(36.89999999999998, 76.2%, 32.1%)" stroke-width="1.5"></path><path d="M-48.15 500.18L77.63 688.47" stroke="hsl(36.89999999999998, 76.2%, 32.1%)" stroke-width="1.5"></path><path d="M-48.15 500.18L237 560.39" stroke="hsl(36.89999999999998, 76.2%, 32.1%)" stroke-width="1.5"></path><path d="M-48.15 500.18L201.63 689.15" stroke="hsl(36.89999999999998, 76.2%, 32.1%)" stroke-width="1.5"></path><path d="M-48.15 500.18L409.02 682.81" stroke="hsl(36.89999999999998, 76.2%, 32.1%)" stroke-width="1.5"></path><path d="M88.75 505.08L88.75 505.08" stroke="hsl(36.89999999999998, 76.2%, 32.1%)" stroke-width="1.5"></path><path d="M88.75 505.08L237 560.39" stroke="hsl(36.89999999999998, 76.2%, 32.1%)" stroke-width="1.5"></path><path d="M687.37 644.44L687.37 644.44" stroke="hsl(36.89999999999998, 76.2%, 32.1%)" stroke-width="1.5"></path><path d="M687.37 644.44L698.59 554.36" stroke="hsl(36.89999999999998, 76.2%, 32.1%)" stroke-width="1.5"></path><path d="M687.37 644.44L813.48 671.82" stroke="hsl(36.89999999999998, 76.2%, 32.1%)" stroke-width="1.5"></path><path d="M1152.18 381.88L1152.18 381.88" stroke="hsl(36.89999999999998, 76.2%, 32.1%)" stroke-width="1.5"></path><path d="M1152.18 381.88L1240.44 358.48" stroke="hsl(36.89999999999998, 76.2%, 32.1%)" stroke-width="1.5"></path><path d="M1152.18 381.88L1135.3 520.02" stroke="hsl(36.89999999999998, 76.2%, 32.1%)" stroke-width="1.5"></path><path d="M1152.18 381.88L1009.58 400.71" stroke="hsl(36.89999999999998, 76.2%, 32.1%)" stroke-width="1.5"></path><path d="M1152.18 381.88L1282.36 488.61" stroke="hsl(36.89999999999998, 76.2%, 32.1%)" stroke-width="1.5"></path><path d="M-110.36 679.79L-110.36 679.79" stroke="hsl(36.89999999999998, 76.2%, 32.1%)" stroke-width="1.5"></path><path d="M-110.36 679.79L77.63 688.47" stroke="hsl(36.89999999999998, 76.2%, 32.1%)" stroke-width="1.5"></path><path d="M77.63 688.47L77.63 688.47" stroke="hsl(36.89999999999998, 76.2%, 32.1%)" stroke-width="1.5"></path><path d="M77.63 688.47L201.63 689.15" stroke="hsl(36.89999999999998, 76.2%, 32.1%)" stroke-width="1.5"></path><path d="M77.63 688.47L88.75 505.08" stroke="hsl(36.89999999999998, 76.2%, 32.1%)" stroke-width="1.5"></path><path d="M237 560.39L237 560.39" stroke="hsl(36.89999999999998, 76.2%, 32.1%)" stroke-width="1.5"></path><path d="M237 560.39L201.63 689.15" stroke="hsl(36.89999999999998, 76.2%, 32.1%)" stroke-width="1.5"></path><path d="M201.63 689.15L201.63 689.15" stroke="hsl(36.89999999999998, 76.2%, 32.1%)" stroke-width="1.5"></path><path d="M409.02 682.81L409.02 682.81" stroke="hsl(36.89999999999998, 76.2%, 32.1%)" stroke-width="1.5"></path><path d="M409.02 682.81L493.73 665.68" stroke="hsl(36.89999999999998, 76.2%, 32.1%)" stroke-width="1.5"></path><path d="M409.02 682.81L518.83 513.3" stroke="hsl(36.89999999999998, 76.2%, 32.1%)" stroke-width="1.5"></path><path d="M409.02 682.81L201.63 689.15" stroke="hsl(36.89999999999998, 76.2%, 32.1%)" stroke-width="1.5"></path><path d="M409.02 682.81L237 560.39" stroke="hsl(36.89999999999998, 76.2%, 32.1%)" stroke-width="1.5"></path><path d="M409.02 682.81L687.37 644.44" stroke="hsl(36.89999999999998, 76.2%, 32.1%)" stroke-width="1.5"></path><path d="M409.02 682.81L509.64 408.58" stroke="hsl(36.89999999999998, 76.2%, 32.1%)" stroke-width="1.5"></path><path d="M509.64 408.58L509.64 408.58" stroke="hsl(36.89999999999998, 76.2%, 32.1%)" stroke-width="1.5"></path><path d="M509.64 408.58L518.83 513.3" stroke="hsl(36.89999999999998, 76.2%, 32.1%)" stroke-width="1.5"></path><path d="M509.64 408.58L710.52 397" stroke="hsl(36.89999999999998, 76.2%, 32.1%)" stroke-width="1.5"></path><path d="M509.64 408.58L698.59 554.36" stroke="hsl(36.89999999999998, 76.2%, 32.1%)" stroke-width="1.5"></path><path d="M509.64 408.58L493.73 665.68" stroke="hsl(36.89999999999998, 76.2%, 32.1%)" stroke-width="1.5"></path><path d="M518.83 513.3L518.83 513.3" stroke="hsl(36.89999999999998, 76.2%, 32.1%)" stroke-width="1.5"></path><path d="M518.83 513.3L493.73 665.68" stroke="hsl(36.89999999999998, 76.2%, 32.1%)" stroke-width="1.5"></path><path d="M518.83 513.3L698.59 554.36" stroke="hsl(36.89999999999998, 76.2%, 32.1%)" stroke-width="1.5"></path><path d="M518.83 513.3L687.37 644.44" stroke="hsl(36.89999999999998, 76.2%, 32.1%)" stroke-width="1.5"></path><path d="M493.73 665.68L493.73 665.68" stroke="hsl(36.89999999999998, 76.2%, 32.1%)" stroke-width="1.5"></path><path d="M493.73 665.68L687.37 644.44" stroke="hsl(36.89999999999998, 76.2%, 32.1%)" stroke-width="1.5"></path><path d="M493.73 665.68L698.59 554.36" stroke="hsl(36.89999999999998, 76.2%, 32.1%)" stroke-width="1.5"></path><path d="M710.52 397L710.52 397" stroke="hsl(36.89999999999998, 76.2%, 32.1%)" stroke-width="1.5"></path><path d="M710.52 397L843.82 382.46" stroke="hsl(36.89999999999998, 76.2%, 32.1%)" stroke-width="1.5"></path><path d="M710.52 397L698.59 554.36" stroke="hsl(36.89999999999998, 76.2%, 32.1%)" stroke-width="1.5"></path><path d="M710.52 397L800.54 552.76" stroke="hsl(36.89999999999998, 76.2%, 32.1%)" stroke-width="1.5"></path><path d="M698.59 554.36L698.59 554.36" stroke="hsl(36.89999999999998, 76.2%, 32.1%)" stroke-width="1.5"></path><path d="M698.59 554.36L800.54 552.76" stroke="hsl(36.89999999999998, 76.2%, 32.1%)" stroke-width="1.5"></path><path d="M698.59 554.36L813.48 671.82" stroke="hsl(36.89999999999998, 76.2%, 32.1%)" stroke-width="1.5"></path><path d="M843.82 382.46L843.82 382.46" stroke="hsl(36.89999999999998, 76.2%, 32.1%)" stroke-width="1.5"></path><path d="M843.82 382.46L949.69 510.8" stroke="hsl(36.89999999999998, 76.2%, 32.1%)" stroke-width="1.5"></path><path d="M843.82 382.46L1009.58 400.71" stroke="hsl(36.89999999999998, 76.2%, 32.1%)" stroke-width="1.5"></path><path d="M800.54 552.76L800.54 552.76" stroke="hsl(36.89999999999998, 76.2%, 32.1%)" stroke-width="1.5"></path><path d="M800.54 552.76L813.48 671.82" stroke="hsl(36.89999999999998, 76.2%, 32.1%)" stroke-width="1.5"></path><path d="M800.54 552.76L687.37 644.44" stroke="hsl(36.89999999999998, 76.2%, 32.1%)" stroke-width="1.5"></path><path d="M800.54 552.76L949.69 510.8" stroke="hsl(36.89999999999998, 76.2%, 32.1%)" stroke-width="1.5"></path><path d="M800.54 552.76L843.82 382.46" stroke="hsl(36.89999999999998, 76.2%, 32.1%)" stroke-width="1.5"></path><path d="M813.48 671.82L813.48 671.82" stroke="hsl(36.89999999999998, 76.2%, 32.1%)" stroke-width="1.5"></path><path d="M813.48 671.82L949.69 510.8" stroke="hsl(36.89999999999998, 76.2%, 32.1%)" stroke-width="1.5"></path><path d="M813.48 671.82L1102.58 700.55" stroke="hsl(36.89999999999998, 76.2%, 32.1%)" stroke-width="1.5"></path><path d="M1009.58 400.71L1009.58 400.71" stroke="hsl(36.89999999999998, 76.2%, 32.1%)" stroke-width="1.5"></path><path d="M1009.58 400.71L949.69 510.8" stroke="hsl(36.89999999999998, 76.2%, 32.1%)" stroke-width="1.5"></path><path d="M949.69 510.8L949.69 510.8" stroke="hsl(36.89999999999998, 76.2%, 32.1%)" stroke-width="1.5"></path><path d="M949.69 510.8L1135.3 520.02" stroke="hsl(36.89999999999998, 76.2%, 32.1%)" stroke-width="1.5"></path><path d="M949.69 510.8L1152.18 381.88" stroke="hsl(36.89999999999998, 76.2%, 32.1%)" stroke-width="1.5"></path><path d="M1158.35 86.1L1158.35 86.1" stroke="hsl(36.89999999999998, 76.2%, 32.1%)" stroke-width="1.5"></path><path d="M1158.35 86.1L1101.18 199.65" stroke="hsl(36.89999999999998, 76.2%, 32.1%)" stroke-width="1.5"></path><path d="M1158.35 86.1L1269.38 -80.06" stroke="hsl(36.89999999999998, 76.2%, 32.1%)" stroke-width="1.5"></path><path d="M1101.18 199.65L1101.18 199.65" stroke="hsl(36.89999999999998, 76.2%, 32.1%)" stroke-width="1.5"></path><path d="M1101.18 199.65L1152.18 381.88" stroke="hsl(36.89999999999998, 76.2%, 32.1%)" stroke-width="1.5"></path><path d="M1101.18 199.65L1299.95 238.08" stroke="hsl(36.89999999999998, 76.2%, 32.1%)" stroke-width="1.5"></path><path d="M1101.18 199.65L1240.44 358.48" stroke="hsl(36.89999999999998, 76.2%, 32.1%)" stroke-width="1.5"></path><path d="M1101.18 199.65L1009.58 400.71" stroke="hsl(36.89999999999998, 76.2%, 32.1%)" stroke-width="1.5"></path><path d="M1135.3 520.02L1135.3 520.02" stroke="hsl(36.89999999999998, 76.2%, 32.1%)" stroke-width="1.5"></path><path d="M1135.3 520.02L1282.36 488.61" stroke="hsl(36.89999999999998, 76.2%, 32.1%)" stroke-width="1.5"></path><path d="M1135.3 520.02L1009.58 400.71" stroke="hsl(36.89999999999998, 76.2%, 32.1%)" stroke-width="1.5"></path><path d="M1135.3 520.02L1102.58 700.55" stroke="hsl(36.89999999999998, 76.2%, 32.1%)" stroke-width="1.5"></path><path d="M1135.3 520.02L1240.44 358.48" stroke="hsl(36.89999999999998, 76.2%, 32.1%)" stroke-width="1.5"></path><path d="M1102.58 700.55L1102.58 700.55" stroke="hsl(36.89999999999998, 76.2%, 32.1%)" stroke-width="1.5"></path><path d="M1102.58 700.55L1265.42 671.51" stroke="hsl(36.89999999999998, 76.2%, 32.1%)" stroke-width="1.5"></path><path d="M1102.58 700.55L949.69 510.8" stroke="hsl(36.89999999999998, 76.2%, 32.1%)" stroke-width="1.5"></path><path d="M1102.58 700.55L1282.36 488.61" stroke="hsl(36.89999999999998, 76.2%, 32.1%)" stroke-width="1.5"></path><path d="M1102.58 700.55L1009.58 400.71" stroke="hsl(36.89999999999998, 76.2%, 32.1%)" stroke-width="1.5"></path><path d="M1269.38 -80.06L1269.38 -80.06" stroke="hsl(36.89999999999998, 76.2%, 32.1%)" stroke-width="1.5"></path><path d="M1269.38 -80.06L1441.91 -100.51" stroke="hsl(36.89999999999998, 76.2%, 32.1%)" stroke-width="1.5"></path><path d="M1269.38 -80.06L1542.92 -56.81" stroke="hsl(36.89999999999998, 76.2%, 32.1%)" stroke-width="1.5"></path><path d="M1299.95 238.08L1299.95 238.08" stroke="hsl(36.89999999999998, 76.2%, 32.1%)" stroke-width="1.5"></path><path d="M1299.95 238.08L1393.57 219.81" stroke="hsl(36.89999999999998, 76.2%, 32.1%)" stroke-width="1.5"></path><path d="M1299.95 238.08L1240.44 358.48" stroke="hsl(36.89999999999998, 76.2%, 32.1%)" stroke-width="1.5"></path><path d="M1299.95 238.08L1416.75 393.53" stroke="hsl(36.89999999999998, 76.2%, 32.1%)" stroke-width="1.5"></path><path d="M1240.44 358.48L1240.44 358.48" stroke="hsl(36.89999999999998, 76.2%, 32.1%)" stroke-width="1.5"></path><path d="M1240.44 358.48L1282.36 488.61" stroke="hsl(36.89999999999998, 76.2%, 32.1%)" stroke-width="1.5"></path><path d="M1240.44 358.48L1416.75 393.53" stroke="hsl(36.89999999999998, 76.2%, 32.1%)" stroke-width="1.5"></path><path d="M1282.36 488.61L1282.36 488.61" stroke="hsl(36.89999999999998, 76.2%, 32.1%)" stroke-width="1.5"></path><path d="M1282.36 488.61L1434.83 543.44" stroke="hsl(36.89999999999998, 76.2%, 32.1%)" stroke-width="1.5"></path><path d="M1282.36 488.61L1416.75 393.53" stroke="hsl(36.89999999999998, 76.2%, 32.1%)" stroke-width="1.5"></path><path d="M1265.42 671.51L1265.42 671.51" stroke="hsl(36.89999999999998, 76.2%, 32.1%)" stroke-width="1.5"></path><path d="M1441.91 -100.51L1441.91 -100.51" stroke="hsl(36.89999999999998, 76.2%, 32.1%)" stroke-width="1.5"></path><path d="M1441.91 -100.51L1542.92 -56.81" stroke="hsl(36.89999999999998, 76.2%, 32.1%)" stroke-width="1.5"></path><path d="M1441.91 -100.51L1543.91 92.83" stroke="hsl(36.89999999999998, 76.2%, 32.1%)" stroke-width="1.5"></path><path d="M1441.91 -100.51L1393.57 219.81" stroke="hsl(36.89999999999998, 76.2%, 32.1%)" stroke-width="1.5"></path><path d="M1393.57 219.81L1393.57 219.81" stroke="hsl(36.89999999999998, 76.2%, 32.1%)" stroke-width="1.5"></path><path d="M1393.57 219.81L1416.75 393.53" stroke="hsl(36.89999999999998, 76.2%, 32.1%)" stroke-width="1.5"></path><path d="M1393.57 219.81L1543.91 92.83" stroke="hsl(36.89999999999998, 76.2%, 32.1%)" stroke-width="1.5"></path><path d="M1393.57 219.81L1240.44 358.48" stroke="hsl(36.89999999999998, 76.2%, 32.1%)" stroke-width="1.5"></path><path d="M1393.57 219.81L1602.2 188.8" stroke="hsl(36.89999999999998, 76.2%, 32.1%)" stroke-width="1.5"></path><path d="M1393.57 219.81L1158.35 86.1" stroke="hsl(36.89999999999998, 76.2%, 32.1%)" stroke-width="1.5"></path><path d="M1416.75 393.53L1416.75 393.53" stroke="hsl(36.89999999999998, 76.2%, 32.1%)" stroke-width="1.5"></path><path d="M1416.75 393.53L1434.83 543.44" stroke="hsl(36.89999999999998, 76.2%, 32.1%)" stroke-width="1.5"></path><path d="M1434.83 543.44L1434.83 543.44" stroke="hsl(36.89999999999998, 76.2%, 32.1%)" stroke-width="1.5"></path><path d="M1434.83 543.44L1451.96 668.57" stroke="hsl(36.89999999999998, 76.2%, 32.1%)" stroke-width="1.5"></path><path d="M1434.83 543.44L1573.54 508.19" stroke="hsl(36.89999999999998, 76.2%, 32.1%)" stroke-width="1.5"></path><path d="M1451.96 668.57L1451.96 668.57" stroke="hsl(36.89999999999998, 76.2%, 32.1%)" stroke-width="1.5"></path><path d="M1451.96 668.57L1553.72 647.56" stroke="hsl(36.89999999999998, 76.2%, 32.1%)" stroke-width="1.5"></path><path d="M1542.92 -56.81L1542.92 -56.81" stroke="hsl(36.89999999999998, 76.2%, 32.1%)" stroke-width="1.5"></path><path d="M1542.92 -56.81L1543.91 92.83" stroke="hsl(36.89999999999998, 76.2%, 32.1%)" stroke-width="1.5"></path><path d="M1542.92 -56.81L1602.2 188.8" stroke="hsl(36.89999999999998, 76.2%, 32.1%)" stroke-width="1.5"></path><path d="M1542.92 -56.81L1393.57 219.81" stroke="hsl(36.89999999999998, 76.2%, 32.1%)" stroke-width="1.5"></path><path d="M1543.91 92.83L1543.91 92.83" stroke="hsl(36.89999999999998, 76.2%, 32.1%)" stroke-width="1.5"></path><path d="M1543.91 92.83L1602.2 188.8" stroke="hsl(36.89999999999998, 76.2%, 32.1%)" stroke-width="1.5"></path><path d="M1602.2 188.8L1602.2 188.8" stroke="hsl(36.89999999999998, 76.2%, 32.1%)" stroke-width="1.5"></path><path d="M1602.2 188.8L1416.75 393.53" stroke="hsl(36.89999999999998, 76.2%, 32.1%)" stroke-width="1.5"></path><path d="M1602.2 188.8L1299.95 238.08" stroke="hsl(36.89999999999998, 76.2%, 32.1%)" stroke-width="1.5"></path><path d="M1573.54 508.19L1573.54 508.19" stroke="hsl(36.89999999999998, 76.2%, 32.1%)" stroke-width="1.5"></path><path d="M1573.54 508.19L1553.72 647.56" stroke="hsl(36.89999999999998, 76.2%, 32.1%)" stroke-width="1.5"></path><path d="M1573.54 508.19L1416.75 393.53" stroke="hsl(36.89999999999998, 76.2%, 32.1%)" stroke-width="1.5"></path><path d="M1573.54 508.19L1451.96 668.57" stroke="hsl(36.89999999999998, 76.2%, 32.1%)" stroke-width="1.5"></path><path d="M1573.54 508.19L1282.36 488.61" stroke="hsl(36.89999999999998, 76.2%, 32.1%)" stroke-width="1.5"></path><path d="M1573.54 508.19L1602.2 188.8" stroke="hsl(36.89999999999998, 76.2%, 32.1%)" stroke-width="1.5"></path><path d="M1553.72 647.56L1553.72 647.56" stroke="hsl(36.89999999999998, 76.2%, 32.1%)" stroke-width="1.5"></path><path d="M1553.72 647.56L1434.83 543.44" stroke="hsl(36.89999999999998, 76.2%, 32.1%)" stroke-width="1.5"></path><path d="M1553.72 647.56L1416.75 393.53" stroke="hsl(36.89999999999998, 76.2%, 32.1%)" stroke-width="1.5"></path><path d="M1553.72 647.56L1265.42 671.51" stroke="hsl(36.89999999999998, 76.2%, 32.1%)" stroke-width="1.5"></path><circle r="25" cx="-48.15" cy="500.18" fill="url(#SvgjsRadialGradient1023)"></circle><circle r="25" cx="88.75" cy="505.08" fill="url(#SvgjsRadialGradient1023)"></circle><circle r="25" cx="687.37" cy="644.44" fill="url(#SvgjsRadialGradient1023)"></circle><circle r="25" cx="1152.18" cy="381.88" fill="url(#SvgjsRadialGradient1023)"></circle><circle r="5" cx="-110.36" cy="679.79" fill="#b7a587"></circle><circle r="5" cx="77.63" cy="688.47" fill="#b7a587"></circle><circle r="5" cx="237" cy="560.39" fill="#b7a587"></circle><circle r="5" cx="201.63" cy="689.15" fill="#b7a587"></circle><circle r="5" cx="409.02" cy="682.81" fill="#b7a587"></circle><circle r="5" cx="509.64" cy="408.58" fill="#b7a587"></circle><circle r="5" cx="518.83" cy="513.3" fill="#b7a587"></circle><circle r="5" cx="493.73" cy="665.68" fill="#b7a587"></circle><circle r="5" cx="710.52" cy="397" fill="#b7a587"></circle><circle r="5" cx="698.59" cy="554.36" fill="#b7a587"></circle><circle r="5" cx="843.82" cy="382.46" fill="#b7a587"></circle><circle r="5" cx="800.54" cy="552.76" fill="#b7a587"></circle><circle r="5" cx="813.48" cy="671.82" fill="#b7a587"></circle><circle r="5" cx="1009.58" cy="400.71" fill="#b7a587"></circle><circle r="5" cx="949.69" cy="510.8" fill="#b7a587"></circle><circle r="5" cx="1158.35" cy="86.1" fill="#b7a587"></circle><circle r="5" cx="1101.18" cy="199.65" fill="#b7a587"></circle><circle r="5" cx="1135.3" cy="520.02" fill="#b7a587"></circle><circle r="5" cx="1102.58" cy="700.55" fill="#b7a587"></circle><circle r="5" cx="1269.38" cy="-80.06" fill="#b7a587"></circle><circle r="5" cx="1299.95" cy="238.08" fill="#b7a587"></circle><circle r="5" cx="1240.44" cy="358.48" fill="#b7a587"></circle><circle r="5" cx="1282.36" cy="488.61" fill="#b7a587"></circle><circle r="5" cx="1265.42" cy="671.51" fill="#b7a587"></circle><circle r="5" cx="1441.91" cy="-100.51" fill="#b7a587"></circle><circle r="5" cx="1393.57" cy="219.81" fill="#b7a587"></circle><circle r="5" cx="1416.75" cy="393.53" fill="#b7a587"></circle><circle r="5" cx="1434.83" cy="543.44" fill="#b7a587"></circle><circle r="5" cx="1451.96" cy="668.57" fill="#b7a587"></circle><circle r="5" cx="1542.92" cy="-56.81" fill="#b7a587"></circle><circle r="5" cx="1543.91" cy="92.83" fill="#b7a587"></circle><circle r="5" cx="1602.2" cy="188.8" fill="#b7a587"></circle><circle r="5" cx="1573.54" cy="508.19" fill="#b7a587"></circle><circle r="5" cx="1553.72" cy="647.56" fill="#b7a587"></circle></g><defs><mask id="SvgjsMask1022"><rect width="1440" height="560" fill="#ffffff"></rect></mask><radialGradient id="SvgjsRadialGradient1023"><stop stop-color="#ffffff" offset="0.1"></stop><stop stop-color="rgba(111, 74, 15, 1)" offset="0.2"></stop><stop stop-color="rgba(111, 74, 15, 0)" offset="1"></stop></radialGradient></defs></svg>